<svg xmlns="http://www.w3.org/2000/svg" xmlns:xlink="http://www.w3.org/1999/xlink" width="216.422" height="58.646" viewBox="0 0 216.422 58.646">
  <defs>
    <clipPath id="clip-path">
      <rect id="長方形_24" data-name="長方形 24" width="216.422" height="58.646" fill="#fff"/>
    </clipPath>
  </defs>
  <g id="グループ_93" data-name="グループ 93" transform="translate(0 0)">
    <path id="パス_75" data-name="パス 75" d="M0,1.239V4.874H5.958V21.6H9.887V4.874h5.96V1.239Z" transform="translate(0 1.185)" fill="#fff"/>
    <g id="グループ_92" data-name="グループ 92" transform="translate(0 0)">
      <g id="グループ_91" data-name="グループ 91" clip-path="url(#clip-path)">
        <path id="パス_76" data-name="パス 76" d="M10.329,1.238H18.59c4.16,0,7.009,2.471,7.009,6.485a5.937,5.937,0,0,1-4.307,5.937L25.625,21.6H21.379l-4.1-7.567H14.252V21.6H10.329Zm7.942,9.392c2.058,0,3.34-.9,3.34-2.908s-1.282-2.937-3.34-2.937H14.252V10.63Z" transform="translate(9.882 1.185)" fill="#fff"/>
        <path id="パス_77" data-name="パス 77" d="M20.153,1.238h3.925V14.794c0,2.148,1.192,3.6,3.722,3.6s3.753-1.454,3.753-3.548V1.238H35.48V14.96c0,4.716-3.172,7.072-7.68,7.072s-7.647-2.356-7.647-7.072Z" transform="translate(19.281 1.185)" fill="#fff"/>
        <path id="パス_78" data-name="パス 78" d="M30.437,1.238h3.929l7.445,13.347h.059V1.238h3.955V21.6H41.956L34.423,8.245h-.057V21.6H30.437Z" transform="translate(29.119 1.185)" fill="#fff"/>
        <path id="パス_79" data-name="パス 79" d="M40.826,1.238h3.929V9.789h.055l7.214-8.551h4.569l-7.619,8.985L57.2,21.6H52.461l-6.136-8.379h-.063l-1.507,2.006V21.6H40.826Z" transform="translate(39.059 1.185)" fill="#fff"/>
        <path id="パス_80" data-name="パス 80" d="M57.829,25.823a22.344,22.344,0,0,1-4.252-12.91A21.787,21.787,0,0,1,57.829,0L59.4,1.16a19.875,19.875,0,0,0-3.728,11.752c0,4.684,1.225,7.88,3.728,11.809Z" transform="translate(51.258 0)" fill="#fff"/>
        <path id="パス_81" data-name="パス 81" d="M59.791,1.238h2.415v8.75h9.1V1.238H73.7V21.6H71.31V12.143h-9.1V21.6H59.791Z" transform="translate(57.202 1.185)" fill="#fff"/>
        <path id="パス_82" data-name="パス 82" d="M69.421,11.456c0-7.007,4.217-10.443,8.639-10.443,4.336,0,8.525,3.549,8.525,10.56,0,7.794-4.189,10.676-8.525,10.676-4.389,0-8.639-3-8.639-10.793m14.6.117c0-5.643-2.763-8.261-5.966-8.261-3.258,0-6.074,2.5-6.074,8.144,0,5.819,2.642,8.521,6.074,8.521,3.346,0,5.966-2.589,5.966-8.4" transform="translate(66.416 0.969)" fill="#fff"/>
        <path id="パス_83" data-name="パス 83" d="M85.987,3.445H79.679V1.238H94.654V3.445H88.377V21.6H85.987Z" transform="translate(76.23 1.185)" fill="#fff"/>
        <path id="パス_84" data-name="パス 84" d="M89.709,1.238h12.247V3.445H92.127v6.6h9.015V12.2H92.127v7.189h9.829V21.6H89.709Z" transform="translate(85.825 1.185)" fill="#fff"/>
        <path id="パス_85" data-name="パス 85" d="M99.016,1.238h2.411V19.386h8.842V21.6H99.016Z" transform="translate(94.73 1.185)" fill="#fff"/>
        <path id="パス_86" data-name="パス 86" d="M109.205,0a22.337,22.337,0,0,1,4.244,12.912,21.8,21.8,0,0,1-4.244,12.91l-1.571-1.164a19.861,19.861,0,0,0,3.722-11.746c0-4.684-1.217-7.882-3.722-11.811Z" transform="translate(102.974 0)" fill="#fff"/>
        <path id="パス_87" data-name="パス 87" d="M29.937,30.685,25.818,23.4h1.943L30.8,29.031h.037L33.9,23.4h1.943L31.7,30.685v5.307H29.937Z" transform="translate(24.7 22.387)" fill="#fff"/>
        <path id="パス_88" data-name="パス 88" d="M31.287,29.719c0-4.336,2.626-6.455,5.373-6.455,2.712,0,5.32,2.174,5.32,6.508,0,4.821-2.608,6.618-5.32,6.618-2.747,0-5.373-1.851-5.373-6.67m8.805.053c0-3.291-1.6-4.821-3.432-4.821-1.867,0-3.485,1.475-3.485,4.768,0,3.489,1.546,5,3.485,5,1.906,0,3.432-1.438,3.432-4.947" transform="translate(29.933 22.257)" fill="#fff"/>
        <path id="パス_89" data-name="パス 89" d="M41.309,30.685,37.19,23.4h1.941l3.041,5.631h.035L45.266,23.4h1.943l-4.136,7.285v5.307H41.309Z" transform="translate(35.58 22.387)" fill="#fff"/>
        <path id="パス_90" data-name="パス 90" d="M42.66,29.719c0-4.336,2.624-6.455,5.371-6.455,2.714,0,5.322,2.174,5.322,6.508,0,4.821-2.608,6.618-5.322,6.618-2.747,0-5.371-1.851-5.371-6.67m8.805.053c0-3.291-1.6-4.821-3.434-4.821-1.867,0-3.483,1.475-3.483,4.768,0,3.489,1.546,5,3.483,5,1.908,0,3.434-1.438,3.434-4.947" transform="translate(40.813 22.257)" fill="#fff"/>
        <path id="パス_91" data-name="パス 91" d="M49.21,29.682c0-4.266,2.628-6.418,5.363-6.418a4.707,4.707,0,0,1,4.768,4.187l-1.835.325c-.305-1.513-1.115-2.825-2.916-2.825-1.871,0-3.508,1.511-3.508,4.731,0,3.467,1.565,5.019,3.508,5.019,1.91,0,3.078-1.207,3.06-3.283h-2.9V29.827h4.661v1.358c0,3.319-2.015,5.2-4.823,5.2-2.861,0-5.381-1.9-5.381-6.706" transform="translate(47.08 22.257)" fill="#fff"/>
        <rect id="長方形_23" data-name="長方形 23" width="1.796" height="12.589" transform="translate(109.405 45.787)" fill="#fff"/>
        <path id="パス_92" data-name="パス 92" d="M61.159,23.4h4.929c2.483,0,4.238,1.421,4.238,3.921,0,2.483-1.648,3.9-4.221,3.9H62.957v4.765h-1.8Zm4.876,6.17a2.207,2.207,0,0,0,2.448-2.248,2.181,2.181,0,0,0-2.465-2.25h-3.06v4.5Z" transform="translate(58.511 22.387)" fill="#fff"/>
        <path id="パス_93" data-name="パス 93" d="M73.9,33.673H68.5l-.808,2.319H65.821L70.37,23.4H72.1l4.53,12.591H74.722ZM69.04,32.127h4.316l-2.139-6.134h-.039Z" transform="translate(62.972 22.387)" fill="#fff"/>
        <path id="パス_94" data-name="パス 94" d="M72.478,23.4H77.4c2.536,0,4.24,1.329,4.24,3.831a3.324,3.324,0,0,1-2.943,3.63l2.747,5.129H79.469L76.81,31H74.272V35.99H72.478Zm4.78,6.011c1.44,0,2.573-.575,2.573-2.18s-1.062-2.2-2.593-2.2H74.272v4.375Z" transform="translate(69.34 22.388)" fill="#fff"/>
        <path id="パス_95" data-name="パス 95" d="M78.426,23.4h1.8v5.864h.053L85.169,23.4H87.4l-4.624,5.522L87.92,35.99H85.744l-4.209-5.772H81.5l-1.278,1.565V35.99h-1.8Z" transform="translate(75.031 22.387)" fill="#fff"/>
      </g>
    </g>
  </g>
</svg>
