<svg id="グループ_357" data-name="グループ 357" xmlns="http://www.w3.org/2000/svg" width="68.604" height="68.604" viewBox="0 0 68.604 68.604">
  <path id="パス_1592" data-name="パス 1592" d="M0,0V6.474H1.12V68.6H7.594V0Z" transform="translate(0 0)" fill="#d4cabb"/>
  <path id="パス_1593" data-name="パス 1593" d="M46.318,0v62.13H45.166V0H38.695V68.6h14.1V0Z" transform="translate(-14.694 0)" fill="#d4cabb"/>
  <path id="パス_1594" data-name="パス 1594" d="M63.275,0V68.6h6.474V6.474H70.9V68.6h6.476V0Z" transform="translate(-24.027 0)" fill="#d4cabb"/>
  <path id="パス_1595" data-name="パス 1595" d="M20.572,6.473h1.159V30.666l-1.159,1.158ZM14.1,0V68.6h6.473V40.632l1.159-1.158V68.6H28.2v-33l-1.3-1.3L28.2,33V0Z" transform="translate(-5.354)" fill="#d4cabb"/>
  <path id="パス_1596" data-name="パス 1596" d="M95.494,0V30.666l-1.159,1.159V0H87.861V68.6h6.474V40.633l1.159-1.159V68.6h6.473v-33l-1.3-1.3,1.3-1.3V0Z" transform="translate(-33.363 0)" fill="#d4cabb"/>
</svg>
