<svg xmlns="http://www.w3.org/2000/svg" xmlns:xlink="http://www.w3.org/1999/xlink" width="34.067" height="28.123" viewBox="0 0 34.067 28.123">
  <defs>
    <clipPath id="clip-path">
      <rect id="長方形_301" data-name="長方形 301" width="34.067" height="28.123" fill="#403d3c"/>
    </clipPath>
  </defs>
  <g id="グループ_884" data-name="グループ 884" transform="translate(-0.001 0.001)">
    <path id="パス_10829" data-name="パス 10829" d="M18.129,0,6.883,8.386H0V9.462h7.24l9.812-7.317V25.96l-9.81-7.425H1.625v-6.68H.55V19.61H6.881l11.248,8.513Z" transform="translate(0.001 -0.001)" fill="#403d3c"/>
    <g id="グループ_883" data-name="グループ 883" transform="translate(0.001 -0.001)">
      <g id="グループ_882" data-name="グループ 882" transform="translate(0 0)" clip-path="url(#clip-path)">
        <path id="パス_10830" data-name="パス 10830" d="M87.032,39.241l-.562-.918c.124-.077,3.08-1.972,3.08-6.729a8.356,8.356,0,0,0-3.11-6.676l.619-.879a9.434,9.434,0,0,1,3.566,7.555c0,5.384-3.448,7.557-3.595,7.647" transform="translate(-63.194 -17.574)" fill="#403d3c"/>
        <path id="パス_10831" data-name="パス 10831" d="M103.749,31.323l-.58-.906c.051-.033,5.235-3.472,5.235-11.356a14.047,14.047,0,0,0-5.249-11.245l.606-.889a14.862,14.862,0,0,1,5.718,12.134c0,8.5-5.5,12.112-5.731,12.262" transform="translate(-75.413 -5.064)" fill="#403d3c"/>
      </g>
    </g>
  </g>
</svg>
