<svg xmlns="http://www.w3.org/2000/svg" xmlns:xlink="http://www.w3.org/1999/xlink" width="95.759" height="38.853" viewBox="0 0 95.759 38.853">
  <defs>
    <clipPath id="clip-path">
      <rect id="長方形_193" data-name="長方形 193" width="13.979" height="18.392" fill="#403d3c"/>
    </clipPath>
  </defs>
  <g id="グループ_601" data-name="グループ 601" transform="translate(-991.051 -731.371)">
    <path id="パス_10801" data-name="パス 10801" d="M1.792-2.1c0,1.47-.028,1.652-.84,1.75L.6-.308A.27.27,0,0,0,.63.042C1.288.014,1.792,0,2.38,0c.56,0,1.036.014,1.666.042a.274.274,0,0,0,.028-.35L3.78-.35c-.812-.112-.84-.28-.84-1.75V-3.864c0-.294.028-.308.658-.308a1,1,0,0,1,.994.448c.434.63,1.008,1.6,1.372,2.114C6.958-.2,7.672.154,8.862.154a2.179,2.179,0,0,0,.616-.07.117.117,0,0,0-.014-.2A1.676,1.676,0,0,1,8.5-.5,15.1,15.1,0,0,1,5.684-4.228c-.07-.112-.14-.252-.07-.336A2.59,2.59,0,0,0,7.364-6.9,2.086,2.086,0,0,0,6.2-8.862a4.957,4.957,0,0,0-2.338-.42c-1.372,0-2.338.042-3.122.112a.234.234,0,0,0-.014.35l.448.056c.574.07.616.308.616,1.638ZM2.94-8.4c0-.392.042-.448.91-.448A2.062,2.062,0,0,1,6.09-6.692a2.008,2.008,0,0,1-.7,1.736,2.346,2.346,0,0,1-1.442.364c-.714,0-.924-.028-.966-.07a1.1,1.1,0,0,1-.042-.462Zm8.3,6.3c0,1.47-.07,1.68-.868,1.75l-.462.042a.272.272,0,0,0,.028.35c.826-.028,1.3-.042,1.9-.042H13.1C14.35,0,15.6.014,16.856.042a12.2,12.2,0,0,0,.63-1.946.258.258,0,0,0-.35-.1,3.515,3.515,0,0,1-.994,1.358,4.1,4.1,0,0,1-1.792.21c-1.232,0-1.526-.154-1.694-.322-.224-.238-.266-.714-.266-1.456V-4.186c0-.364.042-.378.462-.378h.812a4.683,4.683,0,0,1,1.078.07.6.6,0,0,1,.434.532l.126.546a.277.277,0,0,0,.364-.014c0-.308-.056-.84-.056-1.344,0-.532.056-1.078.056-1.414A.277.277,0,0,0,15.3-6.2l-.112.574c-.07.35-.168.434-.336.49a5.193,5.193,0,0,1-1.19.084h-.812c-.42,0-.462,0-.462-.392v-2.8c0-.532,0-.56.42-.56h1.008a6.684,6.684,0,0,1,1.358.084c.728.182.854.672,1.064,1.33a.275.275,0,0,0,.35-.028,15.73,15.73,0,0,0-.224-1.862,18.792,18.792,0,0,1-1.89.042H11.844c-.574,0-1.05-.014-1.652-.042-.084.042-.112.294-.028.35l.224.028c.826.1.854.308.854,1.764Zm12.922-.266a3.153,3.153,0,0,0-1.75-2.688l-1.12-.7A2.2,2.2,0,0,1,20.1-7.476,1.467,1.467,0,0,1,21.77-9.03a1.834,1.834,0,0,1,1.9,1.582c.07.084.294.042.35-.042A6.124,6.124,0,0,0,23.772-9.2a1.881,1.881,0,0,1-.49-.084,5.412,5.412,0,0,0-1.3-.182c-1.82,0-2.856,1.078-2.856,2.408a2.986,2.986,0,0,0,1.512,2.408l1.33.868a2.1,2.1,0,0,1,1.148,1.96,1.59,1.59,0,0,1-1.75,1.61A2.547,2.547,0,0,1,18.956-2.3c-.056-.084-.266-.056-.336.042A6.465,6.465,0,0,0,19-.294a4.37,4.37,0,0,0,2.184.518C23,.224,24.164-.826,24.164-2.366ZM27.1-2.1c0,1.47-.07,1.68-.868,1.75l-.462.042a.272.272,0,0,0,.028.35C26.628.014,27.1,0,27.706,0h1.26c1.246,0,2.492.014,3.752.042a12.2,12.2,0,0,0,.63-1.946A.258.258,0,0,0,33-2,3.515,3.515,0,0,1,32-.644a4.1,4.1,0,0,1-1.792.21c-1.232,0-1.526-.154-1.694-.322-.224-.238-.266-.714-.266-1.456V-4.186c0-.364.042-.378.462-.378h.812a4.683,4.683,0,0,1,1.078.07.6.6,0,0,1,.434.532l.126.546a.277.277,0,0,0,.364-.014c0-.308-.056-.84-.056-1.344,0-.532.056-1.078.056-1.414a.277.277,0,0,0-.364-.014l-.112.574c-.07.35-.168.434-.336.49a5.193,5.193,0,0,1-1.19.084h-.812c-.42,0-.462,0-.462-.392v-2.8c0-.532,0-.56.42-.56H29.68a6.684,6.684,0,0,1,1.358.084c.728.182.854.672,1.064,1.33a.275.275,0,0,0,.35-.028,15.731,15.731,0,0,0-.224-1.862,18.792,18.792,0,0,1-1.89.042H27.706c-.574,0-1.05-.014-1.652-.042-.084.042-.112.294-.028.35l.224.028c.826.1.854.308.854,1.764Zm8.6,0c0,1.47-.028,1.652-.84,1.75l-.35.042a.27.27,0,0,0,.028.35C35.2.014,35.7,0,36.288,0c.56,0,1.036.014,1.666.042a.274.274,0,0,0,.028-.35L37.688-.35c-.812-.112-.84-.28-.84-1.75V-3.864c0-.294.028-.308.658-.308a1,1,0,0,1,.994.448c.434.63,1.008,1.6,1.372,2.114C40.866-.2,41.58.154,42.77.154a2.179,2.179,0,0,0,.616-.07.117.117,0,0,0-.014-.2A1.676,1.676,0,0,1,42.406-.5a15.1,15.1,0,0,1-2.814-3.724c-.07-.112-.14-.252-.07-.336A2.59,2.59,0,0,0,41.272-6.9a2.086,2.086,0,0,0-1.162-1.96,4.957,4.957,0,0,0-2.338-.42c-1.372,0-2.338.042-3.122.112a.234.234,0,0,0-.014.35l.448.056c.574.07.616.308.616,1.638Zm1.148-6.3c0-.392.042-.448.91-.448A2.062,2.062,0,0,1,40-6.692a2.008,2.008,0,0,1-.7,1.736,2.346,2.346,0,0,1-1.442.364c-.714,0-.924-.028-.966-.07a1.1,1.1,0,0,1-.042-.462Zm9.394,6.72A16.312,16.312,0,0,1,46.886.182a.562.562,0,0,0,.21.042A.282.282,0,0,0,47.25.182c.238-.742.9-2.366,1.456-3.654l.756-1.722a33.782,33.782,0,0,1,1.568-3.22.894.894,0,0,1,.728-.49l.42-.028a.275.275,0,0,0-.028-.35c-.462.028-.9.042-1.358.042-.532,0-1.064-.014-1.456-.042a.245.245,0,0,0-.028.35l.252.028c.49.056.63.168.63.266a1.488,1.488,0,0,1-.126.546c-.238.6-.9,2.184-1.3,3.136-.322.742-.91,2.184-1.344,3.108-.7-1.6-1.344-3.206-1.988-4.83a17.536,17.536,0,0,1-.7-1.96c.014-.112.126-.2.658-.266l.21-.028a.245.245,0,0,0-.028-.35c-.588.028-1.078.042-1.694.042s-1.05-.014-1.456-.042a.235.235,0,0,0-.028.35l.252.028c.6.07.812.364,1.134,1.148Zm11.284.336a2.869,2.869,0,0,1,.182.742c0,.14-.2.224-.49.252l-.406.042a.235.235,0,0,0,.028.35C57.246.028,57.778,0,58.45,0c.63,0,1.12.014,1.694.042a.274.274,0,0,0,0-.35L59.766-.35c-.6-.07-.784-.28-1.19-1.484L56.658-7.462c-.21-.616-.434-1.26-.616-1.876a.2.2,0,0,0-.21-.126,1.57,1.57,0,0,1-.728.532,2.008,2.008,0,0,1-.238.994l-1.428,3.78c-.588,1.568-.98,2.478-1.232,3.122a.931.931,0,0,1-.84.686L50.9-.308a.275.275,0,0,0,.028.35C51.31.028,51.814,0,52.276,0c.658.014,1.092.014,1.456.042a.225.225,0,0,0,.028-.35L53.3-.35c-.336-.028-.406-.112-.406-.28A5.352,5.352,0,0,1,53.2-1.792l.49-1.47c.1-.294.182-.336.532-.336h2.114c.42,0,.476.042.574.35ZM55.02-6.93a8.534,8.534,0,0,1,.336-.826h.028a9.224,9.224,0,0,1,.322.882l.756,2.282c.126.378.1.434-.308.434H54.432c-.392,0-.406-.014-.294-.336Zm9.506-1.4c0-.462-.014-.476.406-.476h.994a2.792,2.792,0,0,1,1.624.35c.21.154.308.672.35,1.022a.263.263,0,0,0,.364-.028,8.474,8.474,0,0,1,.21-2.128c-.028-.056-.182-.07-.252-.042-.21.364-.336.392-1.092.392H61.46c-.644,0-1.106.014-1.19-.434a.35.35,0,0,0-.266,0,14.744,14.744,0,0,1-.532,2.086.271.271,0,0,0,.364.1,2.556,2.556,0,0,1,.63-.966,2.866,2.866,0,0,1,1.722-.35h.77c.42,0,.42.014.42.448V-2.1c0,1.47-.07,1.68-.868,1.75l-.5.042a.245.245,0,0,0,0,.35C62.9.014,63.392,0,63.952,0s1.036.014,1.834.042c.084-.042.112-.294.028-.35L65.366-.35c-.812-.07-.84-.28-.84-1.75Zm6.3,6.2c0,1.484-.028,1.68-.854,1.778l-.35.042a.272.272,0,0,0,.028.35C70.35.014,70.826,0,71.414,0c.56,0,1.036.014,1.736.042.084-.042.112-.294.028-.35l-.35-.042c-.826-.1-.854-.294-.854-1.778V-7.112c0-1.484.028-1.722.854-1.792l.35-.028c.084-.056.056-.308-.028-.35-.7.028-1.176.042-1.736.042-.588,0-1.064-.014-1.764-.042-.084.042-.112.294-.028.35l.35.028c.826.07.854.308.854,1.792ZM79.814.224a4.78,4.78,0,0,0,4.858-4.886,4.608,4.608,0,0,0-4.858-4.8A4.839,4.839,0,0,0,74.83-4.522,4.714,4.714,0,0,0,79.814.224ZM80-.21C77.238-.21,76.23-2.9,76.23-4.97c0-3.066,1.89-4.06,3.346-4.06,2.674,0,3.7,2.492,3.7,4.8C83.272-1.47,81.676-.21,80-.21ZM95.06-5.726a11.294,11.294,0,0,1,.21-2.884c.056-.112.336-.224.784-.294l.2-.028a.246.246,0,0,0-.028-.35c-.476.028-.84.042-1.442.042-.532,0-1.008-.014-1.652-.042-.112.042-.126.266-.028.35l.238.028c.56.07.784.154.868.28a9.848,9.848,0,0,1,.28,2.9v3a1.412,1.412,0,0,1-.056.588H94.4c-.658-.672-1.344-1.456-2.31-2.534L90.734-6.2a19.264,19.264,0,0,1-2.394-3.08,4.522,4.522,0,0,1-.644.042c-.252,0-.994,0-1.582-.042a.245.245,0,0,0-.028.35l.238.028a1.519,1.519,0,0,1,.868.336A1.284,1.284,0,0,1,87.5-7.56v4.046A13.517,13.517,0,0,1,87.318-.63c-.07.154-.294.238-.616.28l-.378.042a.259.259,0,0,0,.028.35C86.842.014,87.22,0,87.808,0c.518,0,1.008.014,1.638.042a.257.257,0,0,0,.028-.35L89.04-.35c-.35-.028-.63-.112-.714-.266a10.959,10.959,0,0,1-.252-2.9V-6.566a3.557,3.557,0,0,1,.07-.91h.028c.294.308,1.246,1.456,1.624,1.89l3.248,3.7C94.262-.5,94.668-.014,94.836.224A.252.252,0,0,0,95.1.07c-.042-.364-.042-2.03-.042-2.45Z" transform="translate(990.5 770)" fill="#403d3c"/>
    <g id="グループ_604" data-name="グループ 604" transform="translate(1032.01 731.371)">
      <g id="グループ_603" data-name="グループ 603" clip-path="url(#clip-path)">
        <path id="パス_10372" data-name="パス 10372" d="M26.115,18.392a.52.52,0,0,1-.52-.52V.52a.52.52,0,0,1,1.04,0V17.872a.52.52,0,0,1-.52.52" transform="translate(-23.176)" fill="#403d3c"/>
        <path id="パス_10373" data-name="パス 10373" d="M5.3,8.2H.52A.52.52,0,0,1,0,7.679V.52a.52.52,0,0,1,1.04,0V7.159H4.778V.52a.52.52,0,0,1,1.04,0V7.679a.52.52,0,0,1-.52.52" fill="#403d3c"/>
        <path id="パス_10374" data-name="パス 10374" d="M102.849,18.393a.52.52,0,0,1-.52-.52V.521a.52.52,0,0,1,.158-.373A.525.525,0,0,1,102.865,0a5.769,5.769,0,0,1,1.815.4,2.821,2.821,0,0,1,1.955,2.707v9.176a.52.52,0,0,1-.5.52l-1.077.034a.52.52,0,0,1-.033-1.039l.573-.018V3.109c0-1.428-1.421-1.871-2.227-2.008V17.873a.52.52,0,0,1-.52.52" transform="translate(-92.656 -0.001)" fill="#403d3c"/>
      </g>
    </g>
  </g>
</svg>
