<svg id="グループ_619" data-name="グループ 619" xmlns="http://www.w3.org/2000/svg" width="127.933" height="16.522" viewBox="0 0 127.933 16.522">
  <path id="パス_10800" data-name="パス 10800" d="M-79.632-2.1c0,1.47-.028,1.624-.77,1.75l-.252.042a.272.272,0,0,0,.028.35c.518-.014.994-.042,1.61-.042.588,0,1.274.042,1.68.042,2.52,0,3.724-1.092,3.724-2.716a2.316,2.316,0,0,0-1.876-2.338c-.154-.028-.266-.07-.266-.21A2.025,2.025,0,0,0-74.326-7.14,1.838,1.838,0,0,0-75.39-8.89a5.326,5.326,0,0,0-2.352-.392c-1.3,0-2.254.042-3.01.112a.224.224,0,0,0-.014.35l.448.042c.63.056.686.322.686,1.358Zm1.148-2.282c0-.28.056-.364.812-.364,2.226,0,2.786,1.288,2.786,2.394,0,1.4-.952,1.96-2.2,1.96A1.359,1.359,0,0,1-78.19-.784a2.743,2.743,0,0,1-.294-1.526Zm0-4.018c0-.252.056-.322.2-.364a1.723,1.723,0,0,1,.644-.084,1.849,1.849,0,0,1,2.086,1.89c0,1.316-.77,1.736-2.2,1.792-.714.028-.728,0-.728-.392ZM-66.906.224a4.78,4.78,0,0,0,4.858-4.886,4.608,4.608,0,0,0-4.858-4.8A4.839,4.839,0,0,0-71.89-4.522,4.714,4.714,0,0,0-66.906.224Zm.182-.434c-2.758,0-3.766-2.688-3.766-4.76,0-3.066,1.89-4.06,3.346-4.06,2.674,0,3.7,2.492,3.7,4.8C-63.448-1.47-65.044-.21-66.724-.21Zm11.368.434A4.78,4.78,0,0,0-50.5-4.662a4.608,4.608,0,0,0-4.858-4.8A4.839,4.839,0,0,0-60.34-4.522,4.714,4.714,0,0,0-55.356.224Zm.182-.434c-2.758,0-3.766-2.688-3.766-4.76,0-3.066,1.89-4.06,3.346-4.06,2.674,0,3.7,2.492,3.7,4.8C-51.9-1.47-53.494-.21-55.174-.21Zm7.532-1.89c0,1.47-.028,1.638-.77,1.75l-.28.042a.27.27,0,0,0,.028.35C-48.09.014-47.614,0-47.04,0c.546,0,1.022.014,1.708.042.084-.042.112-.294.028-.35l-.378-.042c-.784-.084-.812-.28-.812-1.75V-3.906c0-.49.028-.672.238-.672.336,0,.56.28,1.358,1.176l1.12,1.26c.532.6.9.98,1.162,1.316.1.126.2.238.2.322s-.14.112-.336.14l-.322.056c-.084.084-.042.322.056.35C-42.378.014-41.888,0-41.314,0c.658,0,1.2.014,1.568.042a.245.245,0,0,0,.028-.35L-40.1-.35a1.745,1.745,0,0,1-1.12-.574c-1.092-1.148-2.17-2.408-3.5-3.934-.182-.224-.266-.336-.266-.434s.126-.238.322-.434l1.26-1.19A14.043,14.043,0,0,1-41.44-8.54a3.458,3.458,0,0,1,1.3-.392.259.259,0,0,0-.028-.35c-.42.028-.9.042-1.386.042s-1.05-.014-1.54-.042a.234.234,0,0,0-.028.35l.378.084c.182.042.238.084.238.14a.413.413,0,0,1-.1.224,15.8,15.8,0,0,1-1.092,1.162l-1.512,1.5c-.154.14-.518.5-.714.672A.8.8,0,0,1-46.312-5c-.154,0-.182-.266-.182-.532V-7.14c0-1.47.028-1.68.84-1.764l.266-.028c.084-.056.056-.308-.028-.35-.6.028-1.078.042-1.624.042-.63,0-1.078-.014-1.764-.042-.084.042-.112.294-.028.35l.35.028c.812.07.84.294.84,1.764ZM-26.32-5.726a11.3,11.3,0,0,1,.21-2.884c.056-.112.336-.224.784-.294l.2-.028a.246.246,0,0,0-.028-.35c-.476.028-.84.042-1.442.042-.532,0-1.008-.014-1.652-.042-.112.042-.126.266-.028.35l.238.028c.56.07.784.154.868.28a9.848,9.848,0,0,1,.28,2.9v3a1.412,1.412,0,0,1-.056.588h-.028c-.658-.672-1.344-1.456-2.31-2.534L-30.646-6.2a19.264,19.264,0,0,1-2.394-3.08,4.522,4.522,0,0,1-.644.042c-.252,0-.994,0-1.582-.042a.245.245,0,0,0-.028.35l.238.028a1.519,1.519,0,0,1,.868.336A1.284,1.284,0,0,1-33.88-7.56v4.046A13.517,13.517,0,0,1-34.062-.63c-.07.154-.294.238-.616.28l-.378.042a.259.259,0,0,0,.028.35C-34.538.014-34.16,0-33.572,0c.518,0,1.008.014,1.638.042a.256.256,0,0,0,.028-.35L-32.34-.35c-.35-.028-.63-.112-.714-.266a10.959,10.959,0,0,1-.252-2.9V-6.566a3.557,3.557,0,0,1,.07-.91h.028c.294.308,1.246,1.456,1.624,1.89l3.248,3.7C-27.118-.5-26.712-.014-26.544.224A.252.252,0,0,0-26.278.07c-.042-.364-.042-2.03-.042-2.45Zm7.686,5.95a4.78,4.78,0,0,0,4.858-4.886,4.608,4.608,0,0,0-4.858-4.8,4.839,4.839,0,0,0-4.984,4.942A4.714,4.714,0,0,0-18.634.224Zm.182-.434c-2.758,0-3.766-2.688-3.766-4.76,0-3.066,1.89-4.06,3.346-4.06,2.674,0,3.7,2.492,3.7,4.8C-15.176-1.47-16.772-.21-18.452-.21Zm5.306-8.708c.588.056.756.434,1.022,1.008.91,1.946,1.778,3.892,2.674,5.838.182.406.728,1.666.966,2.254a.562.562,0,0,0,.21.042A.3.3,0,0,0-8.106.182a43.074,43.074,0,0,1,1.75-3.976c.434.98,1.246,2.73,1.694,3.976a.447.447,0,0,0,.2.042A.3.3,0,0,0-4.3.182c.574-1.5,1.134-2.87,1.75-4.3l1.022-2.366C-.686-8.428-.56-8.848.14-8.918l.266-.028C.5-9.058.49-9.24.378-9.282c-.364.028-.77.042-1.3.042-.434,0-.812-.014-1.344-.042-.112.056-.126.21-.014.336l.406.028c.294.014.462.126.462.322a8.488,8.488,0,0,1-.42,1.274c-.1.252-.84,2.114-1.12,2.786-.406.994-.826,1.974-1.26,2.954C-4.676-2.646-5.166-3.7-5.642-4.774a1.063,1.063,0,0,1-.1-.336,1.143,1.143,0,0,1,.126-.336c.21-.49.8-1.708,1.092-2.226.308-.574.56-1.2,1.148-1.246l.406-.028c.084-.112.07-.294-.028-.336-.322.028-.882.042-1.344.042-.518,0-.938-.014-1.316-.042-.1.042-.126.2-.028.336l.42.028c.448.028.518.182.014,1.372-.308.756-.56,1.288-.826,1.834-.392-.868-.784-1.75-1.078-2.436-.266-.63-.252-.728.294-.77l.364-.028c.084-.112.07-.294-.028-.336-.322.028-.84.042-1.54.042-.56,0-1.092-.014-1.5-.042a.216.216,0,0,0-.028.336l.336.028c.476.042.686.336.9.77.532,1.12,1.05,2.24,1.54,3.36a1.213,1.213,0,0,1,.112.364,2.542,2.542,0,0,1-.224.574c-.364.784-.742,1.568-1.078,2.268C-8.82-3.3-9.646-5.054-10.43-6.8a11.262,11.262,0,0,1-.728-1.876c0-.126.168-.21.462-.238l.322-.028c.084-.1.1-.294-.028-.336-.49.028-1.2.042-1.6.042-.434,0-1.064-.014-1.442-.042a.23.23,0,0,0-.042.336Z" transform="translate(127.462 12.629)" fill="#403d3c"/>
  <g id="グループ_46" data-name="グループ 46">
    <path id="パス_57" data-name="パス 57" d="M5.494,2.113l4.18,13.442H1.314ZM6.151.967H29.644L34.18,15.555H10.687ZM5.137,0,0,16.522H35.494L30.356,0Z" fill="#403d3c"/>
    <path id="パス_58" data-name="パス 58" d="M122.168,42.091l7.45-7.1-.668-.7-6.877,6.558-4.562-3.189-.554.793Z" transform="translate(-102.814 -30.141)" fill="#403d3c"/>
  </g>
</svg>
